<svg width="84" height="84" fill="none" xmlns="http://www.w3.org/2000/svg"><g filter="url(#filter0_d_579_3114)"><circle cx="42" cy="42" r="25" fill="#fff"/></g><path d="M41.998 32.369a9.633 9.633 0 100 19.266 9.633 9.633 0 000-19.266zm0 15.89a6.258 6.258 0 110-12.517 6.258 6.258 0 010 12.516zM52.013 34.26a2.246 2.246 0 100-4.491 2.246 2.246 0 000 4.491z" fill="#D6258F"/><path d="M59.777 29.731a9.593 9.593 0 00-5.485-5.483 13.76 13.76 0 00-4.555-.875c-2.006-.088-2.641-.113-7.729-.113-5.087 0-5.74 0-7.729.113-1.555.03-3.094.326-4.55.875a9.583 9.583 0 00-5.485 5.483 13.722 13.722 0 00-.873 4.554c-.09 2.004-.117 2.64-.117 7.73 0 5.087 0 5.735.117 7.729.031 1.558.325 3.095.873 4.556a9.605 9.605 0 005.487 5.483c1.453.57 2.993.886 4.552.938 2.007.087 2.642.114 7.73.114 5.087 0 5.74 0 7.729-.114a13.782 13.782 0 004.554-.873 9.612 9.612 0 005.485-5.486c.548-1.458.842-2.995.873-4.554.09-2.004.117-2.64.117-7.729 0-5.09 0-5.735-.117-7.73a13.709 13.709 0 00-.877-4.618zM57.24 49.59a10.531 10.531 0 01-.648 3.517 6.222 6.222 0 01-3.567 3.565 10.41 10.41 0 01-3.48.648c-1.978.091-2.537.114-7.612.114-5.079 0-5.598 0-7.614-.114a10.332 10.332 0 01-3.477-.648 6.22 6.22 0 01-3.582-3.565 10.583 10.583 0 01-.648-3.477c-.09-1.98-.11-2.537-.11-7.612 0-5.078 0-5.596.11-7.615.014-1.2.233-2.389.648-3.515a6.221 6.221 0 013.582-3.566 10.435 10.435 0 013.477-.648c1.981-.09 2.537-.115 7.614-.115s5.598 0 7.613.115a10.33 10.33 0 013.479.648 6.23 6.23 0 013.567 3.566c.41 1.115.628 2.29.648 3.477.09 1.982.112 2.538.112 7.615 0 5.075 0 5.62-.09 7.613h-.022v-.003z" fill="#D6258F"/><defs><filter id="filter0_d_579_3114" x="0" y="0" width="84" height="84" filterUnits="userSpaceOnUse" color-interpolation-filters="sRGB"><feFlood flood-opacity="0" result="BackgroundImageFix"/><feColorMatrix in="SourceAlpha" values="0 0 0 0 0 0 0 0 0 0 0 0 0 0 0 0 0 0 127 0" result="hardAlpha"/><feMorphology radius="5" operator="dilate" in="SourceAlpha" result="effect1_dropShadow_579_3114"/><feOffset/><feGaussianBlur stdDeviation="6"/><feColorMatrix values="0 0 0 0 0.764706 0 0 0 0 0.027451 0 0 0 0 0.47451 0 0 0 1 0"/><feBlend in2="BackgroundImageFix" result="effect1_dropShadow_579_3114"/><feBlend in="SourceGraphic" in2="effect1_dropShadow_579_3114" result="shape"/></filter></defs></svg>