<svg width="84" height="84" fill="none" xmlns="http://www.w3.org/2000/svg"><g filter="url(#filter0_d_579_3120)"><circle cx="42" cy="42" r="25" fill="#fff"/></g><path d="M61.956 31.281c.292-.968 0-1.679-1.379-1.679h-4.569c-1.162 0-1.693.615-1.985 1.29 0 0-2.323 5.664-5.615 9.337-1.062 1.069-1.547 1.406-2.127 1.406-.29 0-.71-.337-.71-1.306v-9.048c0-1.162-.335-1.679-1.304-1.679h-7.18c-.724 0-1.162.538-1.162 1.05 0 1.1 1.646 1.354 1.815 4.454v6.725c0 1.473-.265 1.742-.848 1.742-1.548 0-5.315-5.685-7.55-12.194-.436-1.264-.875-1.775-2.042-1.775h-4.567c-1.306 0-1.566.615-1.566 1.29 0 1.212 1.548 7.212 7.21 15.148 3.775 5.418 9.09 8.356 13.931 8.356 2.903 0 3.26-.652 3.26-1.777v-4.096c0-1.304.278-1.567 1.197-1.567.675 0 1.837.342 4.548 2.952 3.095 3.096 3.608 4.486 5.347 4.486h4.567c1.304 0 1.956-.652 1.581-1.94-.41-1.281-1.89-3.146-3.852-5.352-1.066-1.258-2.66-2.612-3.146-3.29-.677-.872-.48-1.258 0-2.033.003.002 5.567-7.835 6.146-10.5z" fill="#D6258F"/><defs><filter id="filter0_d_579_3120" x="0" y="0" width="84" height="84" filterUnits="userSpaceOnUse" color-interpolation-filters="sRGB"><feFlood flood-opacity="0" result="BackgroundImageFix"/><feColorMatrix in="SourceAlpha" values="0 0 0 0 0 0 0 0 0 0 0 0 0 0 0 0 0 0 127 0" result="hardAlpha"/><feMorphology radius="5" operator="dilate" in="SourceAlpha" result="effect1_dropShadow_579_3120"/><feOffset/><feGaussianBlur stdDeviation="6"/><feColorMatrix values="0 0 0 0 0.788235 0 0 0 0 0.027451 0 0 0 0 0.486275 0 0 0 1 0"/><feBlend in2="BackgroundImageFix" result="effect1_dropShadow_579_3120"/><feBlend in="SourceGraphic" in2="effect1_dropShadow_579_3120" result="shape"/></filter></defs></svg>